<svg xmlns:svg="http://www.w3.org/2000/svg" xmlns="http://www.w3.org/2000/svg" width="25px" height="41px" viewBox="0 0 25 41" id="marker-leeds-footfall-1" version="1.1" style="overflow:visible;border:1px solid red;">
	<g transform="translate(12.5,41)">
		<path style="fill:black;fill-opacity:1;fill-rule:evenodd;stroke-width:0" d="M 0,0 l -10,-20 q -2.2 -5, -2 -9 a 12,12 1 0,1 24,1 q 0.2 4, -2 9 Z"></path>
		<g transform="translate(0,-28)">
			<path style="fill:white;stroke-width:0;" d="M -4.5,4 m -3,0 a 3,3 0 1,0 6,0 a 3,3 0 1,0 -6,0 M -4.5,4 m -2,0 a 2,2 1 0,1 4,0 a 2,2 1 0,1 -4,0 M 4.5,4 m -3,0 a 3,3 0 1,0 6,0 a 3,3 0 1,0 -6,0 M 4.5,4 m -2,0 a 2,2 1 0,1 4,0 a 2,2 1 0,1 -4,0 "></path>
			<path style="fill:white;stroke-width:0;" d="M 0.75,5 l -1.5,0 0,-3.2 c -3 -2, -3 -2,-2.5 -3 c 4 -4, 4 -4, 6 -2 q 1 1, 3 1 l 0,1.5 q -3,0 ,-4.5 -1.8 l -2,2 1.6,1.2 Z M 3.2,-6 m -1.5,0 a 1.5,1.5 0 1,0 3,0 a 1.5,1.5 0 1,0 -3,0"></path>
		</g>
	</g>
</svg>